<svg xmlns="http://www.w3.org/2000/svg" viewBox="0 0 935.86 193.56"><defs><style>.cls-1{fill:#58ba5a;}.cls-2{fill:#0c9547;}.cls-3{fill:#9e9fa3;}</style></defs><title>Asset 1</title><g id="Layer_2" data-name="Layer 2"><g id="Layer_1-2" data-name="Layer 1"><path class="cls-1" d="M36.32,120.88H6.41V68.49c0-1.93,0-4.85-3.3-4.85C0,63.65,0,66.33,0,68.49v52.62C0,125.47.6,126,5.33,126h31c2.08,0,4.68,0,4.68-2.62s-2.6-2.53-4.68-2.53"/><path class="cls-1" d="M49.68,80.59c-2.92,0-2.92,2.45-2.92,4.41v37.73c0,1.92,0,4.33,2.92,4.33s2.83-2.4,2.83-4.33V85c0-1.76,0-4.41-2.83-4.41"/><path class="cls-1" d="M49.68,65.36A3.49,3.49,0,0,0,46,68.74a3.53,3.53,0,0,0,3.66,3.38,3.58,3.58,0,0,0,3.66-3.38,3.53,3.53,0,0,0-3.66-3.38"/><path class="cls-1" d="M78,81.61H71.81V77.73c0-5.55.52-9.2,7.47-9.2.26,0,1,.08,1.86.15s1.79.18,2.13.18a2.33,2.33,0,0,0,2.37-2.26,2.22,2.22,0,0,0-1.33-1.93,21.1,21.1,0,0,0-6.79-1A13.71,13.71,0,0,0,71.69,65a9.54,9.54,0,0,0-4.23,3.75c-.6,1-1.39,3-1.39,8.24v4.66H61.18c-.9,0-3.65,0-3.65,1.93s2.56,2,3.65,2h4.88v37.17c0,1.92,0,4.33,2.92,4.33s2.83-2.4,2.83-4.33V85.56H78c2.43,0,3.66-.68,3.66-2,0-1.93-2.39-1.93-3.66-1.93m-5.36-10-.09.19.09-.19"/><path class="cls-1" d="M124.39,100.75a24.29,24.29,0,0,0-2.71-10.37,17.66,17.66,0,0,0-6.2-6.75c-.29-.18-.61-.3-.91-.47s-.42-.23-.64-.34a18.88,18.88,0,0,0-2-.84l-.63-.22a24,24,0,0,0-2.35-.62l-.5-.09a27.12,27.12,0,0,0-2.92-.36l-.28,0c-.57,0-1.11-.09-1.7-.09-6.82,0-12.45,2.2-16.27,6.38s-5.67,9.88-5.67,16.86c0,6.77,1.85,12.48,5.36,16.53a18.29,18.29,0,0,0,6.84,4.91,25.19,25.19,0,0,0,9.74,1.78c8.39,0,13.31-3.34,15.94-6.13a14.5,14.5,0,0,0,3.95-7.26,2.71,2.71,0,0,0-2.82-2.44,3,3,0,0,0-2.73,1.91,15.18,15.18,0,0,1-7.53,8.17,15.59,15.59,0,0,1-6.62,1.39c-5.12,0-9.14-1.73-12-5.16-2.6-3.16-4-7.67-4.12-13.06H119c2.87,0,5.34,0,5.34-3.72m-36.63-.65C88.46,94.45,92.54,85,103.38,85c13.44,0,14.59,11.38,15,15.14Z"/><path class="cls-1" d="M153.81,63.65c-3.19,0-3.19,2.91-3.19,4.84v53.73c0,2,0,4.84,3.29,4.84,3.11,0,3.11-2.69,3.11-4.84V68.48c0-2.15,0-4.84-3.2-4.84"/><path class="cls-1" d="M258.4,96.22A3.27,3.27,0,0,0,261.63,93V56H255V93a3.3,3.3,0,0,0,3.36,3.26"/><path class="cls-1" d="M197.69,104c-.39-.22-.83-.39-1.25-.59l-.43-.2a54.46,54.46,0,0,0-10.49-3,44.6,44.6,0,0,1-9.33-2.65c-2.76-1.34-4.06-3.09-4.06-5.51,0-4.87,5.81-7.06,11.55-7.06,6,0,10.53,2.35,11.93,6.13.84,2.31,1.49,2.68,2.73,2.68A2.37,2.37,0,0,0,201,91.5a10.21,10.21,0,0,0-2.73-5.75A14.09,14.09,0,0,0,193,82.18a25.82,25.82,0,0,0-9.56-1.59c-6.44,0-11.19,1.75-14.11,5.19A11.78,11.78,0,0,0,166.47,93a9.86,9.86,0,0,0,4.48,8.17c2.85,1.89,5.81,2.6,11.69,4,1.6.39,3.41.83,5.49,1.36l.24.06c3.2.8,9.18,2.3,9.18,7.68,0,4.15-4,8.33-13,8.33-6.53,0-11-2.49-13.22-7.41l-.07-.14c-.61-1.39-1.2-2.71-2.85-2.71a3.2,3.2,0,0,0-1.91.65,2.28,2.28,0,0,0-.92,1.78c0,2.53,2.11,6.07,5,8.42a14.55,14.55,0,0,0,4.8,2.6,28.08,28.08,0,0,0,8.77,1.18c7.41,0,12.83-1.8,16.11-5.35a12.17,12.17,0,0,0,3.22-8.13c0-4.27-1.89-7.41-5.8-9.6"/><path class="cls-1" d="M332.74,85.31c-2.09-2.15-6-4.72-12.83-4.72-9,0-12.73,4.28-15.45,7.46V84.74c0-1.28,0-2.73-.82-3.55a2.41,2.41,0,0,0-.32-.19l-.11-.07a2.93,2.93,0,0,0-1.58-.42c-2.92,0-2.92,2.55-2.92,4.41v37.73c0,2.08,0,4.42,2.92,4.42a3,3,0,0,0,1.58-.42l.11-.07a3,3,0,0,0,.32-.19c.83-.83.82-2.27.82-3.56V106.74c0-7.19.24-10.87,1.67-13.67a14.22,14.22,0,0,1,5.62-5.75,15.78,15.78,0,0,1,7.7-2.1,11.35,11.35,0,0,1,9.24,4.18c1.7,2.27,1.94,5.69,1.94,9v24.39c0,1.28,0,2.73.82,3.56a2.4,2.4,0,0,0,.32.19l.11.07a3,3,0,0,0,1.58.42c2.92,0,2.92-2.45,2.92-4.42V97.06c0-2.38,0-8-3.63-11.75"/><path class="cls-1" d="M267.55,62.84v6.35a27,27,0,1,1-18.22.22V63a33.12,33.12,0,1,0,18.22-.16"/><path class="cls-2" d="M508.31,69.78c-11-4.9-17.61-6.79-24.14-6.79-6.85,0-11.25,2.45-11.25,6.24,0,11.45,38.84,8.23,38.84,34.71,0,14.6-12.25,23.08-29.27,23.08-13.36,0-19.92-3.45-27.5-7.36V103.28c10.92,7.24,17.61,9.8,26,9.8,7.31,0,11.25-2.56,11.25-7,0-12.46-38.84-7.9-38.84-35.17C453.44,57.75,464.8,49,482.49,49c8.54,0,16.24,1.79,25.82,5.91V69.78"/><path class="cls-2" d="M562.68,123.55A50.13,50.13,0,0,1,545.27,127c-18.09,0-29.78-10.54-29.78-26.56,0-15.73,12.14-26.85,29.11-26.85a53.79,53.79,0,0,1,17.29,3.34V89a29.52,29.52,0,0,0-13.17-3.49c-9.7,0-16,5.84-16,14.84s6.14,15.14,15.39,15.14c3.9,0,7.37-.9,14.52-3.57v11.64"/><path class="cls-2" d="M713.75,73.62c-15.87,0-27.17,11.21-27.17,27S698.33,127,716.44,127c4,0,13.71,0,23-6.84v-10c-7.57,5.39-12.58,7.24-19,7.24-10.2,0-16.44-5.28-17-14.28h36.95c.77-18.8-11.58-29.46-26.54-29.46M703.69,94.55c.66-7.15,4.81-11.28,11.16-11.28s10.5,4.25,11.17,11.28Z"/><rect class="cls-2" x="746.55" y="74.57" width="16.16" height="51.51"/><path class="cls-2" d="M807.67,50V76.84a30.05,30.05,0,0,0-13.42-3.23c-14.74,0-24.93,10.89-24.93,26.66,0,15.42,10.2,26.76,24,26.76a21.22,21.22,0,0,0,14.33-5.12v4.15h16.16V50H807.67m0,62c-3.36,3-6.16,4.24-9.61,4.24-7.61,0-12.42-6.25-12.42-15.64,0-10.29,4.82-16.21,13-16.21a17.55,17.55,0,0,1,9.07,3Z"/><path class="cls-2" d="M857.78,73.62c-15.86,0-27.15,11.21-27.15,27S842.39,127,860.48,127c4,0,13.72,0,23-6.84v-10c-7.58,5.39-12.6,7.24-19.09,7.24-10.15,0-16.41-5.28-17-14.28h36.93c.77-18.8-11.59-29.46-26.56-29.46m-10,20.94c.67-7.15,4.8-11.28,11.15-11.28s10.54,4.25,11.21,11.28Z"/><path class="cls-2" d="M908.53,89.32h.24c4.79-10.73,10.16-15.75,16.4-15.75,3.22,0,6,1.23,10.7,4.7l-4.44,14.28c-4.25-2.68-7-3.79-9.6-3.79-5.94,0-9.72,5.58-13.29,15V126H892.34V74.52h16.18v14.8"/><path class="cls-2" d="M763.46,52.9c1.52,4-1.21,9.59-6.08,12.45s-10,2-11.55-2,1.18-9.6,6.07-12.45,10-2,11.57,2"/><path class="cls-2" d="M620.88,93.29c0-13.95-9.49-19.67-18.85-19.67-6.37,0-11.6,2.69-16.28,8.61h-.23V50H569.36v75.94h16.17V93.29c3.79-5.47,7-7.81,10.81-7.81,5,0,8.37,3.57,8.37,11.27v18.09a48.81,48.81,0,0,1,16.17-5.13V93.29"/><path class="cls-2" d="M661.44,73.61c-6.59,0-11.62,2.45-16.76,8.33V74.57H628.51v35c5.6.56,12.74,3.13,16.17,7.37V92.89c4.25-6.38,7.27-8.5,11.28-8.5,4.58,0,8.06,3,8.06,10.28v31.27h16.16V93.33c0-15.17-10.71-19.73-18.75-19.73"/><polygon class="cls-2" points="689.13 140.73 670.34 140.73 670.34 154.08 688.46 154.08 688.46 159.81 670.34 159.81 670.34 173.58 689.69 173.58 689.69 179.3 664.04 179.3 664.04 135.02 689.13 135.02 689.13 140.73"/><rect class="cls-2" x="704.47" y="135" width="5.76" height="44.33"/><path class="cls-2" d="M730.75,165.57h20.5c0-10.8-4.94-16-12.67-16-8,0-13.6,5.93-13.6,14.77,0,8.08,5,15.56,14.09,15.56a19.08,19.08,0,0,0,11.67-3.45v-5.6c-3.42,2.24-6.73,3.53-10.22,3.53-5.58,0-8.89-3-9.79-8.78m8-11.06c4.08,0,6.61,2.81,6.8,7.22H730.86c.79-4.62,3.44-7.22,7.86-7.22"/><path class="cls-2" d="M788.84,157.78c-3.31-2.27-5.52-2.94-8-2.94-5.27,0-8.92,4-8.92,10s3.88,9.66,9.88,9.66a18.43,18.43,0,0,0,7.72-1.94v5.67a23.4,23.4,0,0,1-8.68,1.68c-8.71,0-14.77-6-14.77-14.55,0-9.66,5.53-15.77,14.37-15.77a19.16,19.16,0,0,1,8.44,2v6.22"/><path class="cls-2" d="M815.06,150.11h9.24v5.18h-9.24v15a4,4,0,0,0,4.16,4.43,12.55,12.55,0,0,0,6.56-2.17v5.4a17.18,17.18,0,0,1-7,1.94c-6.27,0-9.44-3.88-9.44-9.16V155.29h-5.08v-.65l10.81-10.57v6"/><path class="cls-2" d="M846.31,150.11v6.76h.11c2.94-5.17,5.73-7.32,8.45-7.32,2.34,0,4.54,1.1,6.95,3.38L858.76,158c-1.75-1.73-4-2.93-5.39-2.93-4,0-7.07,4-7.07,9v15.24h-5.75V150.11h5.75"/><path class="cls-2" d="M920.79,157.78c-3.33-2.27-5.53-2.94-8.07-2.94-5.25,0-8.87,4-8.87,10s3.89,9.66,9.85,9.66a18.67,18.67,0,0,0,7.75-1.94v5.67a23.84,23.84,0,0,1-8.72,1.68c-8.7,0-14.77-6-14.77-14.55,0-9.66,5.55-15.77,14.4-15.77a19.3,19.3,0,0,1,8.45,2v6.22"/><rect class="cls-2" x="877.06" y="150.1" width="5.76" height="29.23"/><path class="cls-2" d="M883,139.61c.56,1.42-.42,3.4-2.14,4.42s-3.59.69-4.12-.72.43-3.4,2.17-4.42,3.56-.7,4.08.72"/><path class="cls-2" d="M628.95,153.9l1.75-6.33h15.89c2-9.18.42-17.69-5.15-23.26-11.28-11.27-34.87-7.44-52.45,9.38a61.44,61.44,0,0,0-7.18,8.32h9.57l-2.23,6.35H577.72a54.63,54.63,0,0,0-2.91,6h13.57l-2.17,6.35H572.88c-2.28,9.69-.83,18.74,4.9,24.48,11.15,11.13,34.66,7.22,52.23-9.59a61.92,61.92,0,0,0,7.91-9.32h-12.3l1.87-6.33h14.38a54.8,54.8,0,0,0,2.78-6H628.95M625.42,142c-1,0-1.44.16-1.86.63a1.31,1.31,0,0,0-.29.73l-5.16,19.57c-1.21,6.86-9.64,13.72-20.64,13.72H582.2l2.65-10.06h9.82a3.11,3.11,0,0,0,2.45-1.1,2.38,2.38,0,0,0,.59-1.18l4.08-17.1c1.2-6.87,8.45-14.46,19.44-14.46h15.65l-2,9.25Z"/><rect class="cls-3" x="393.29" width="3.31" height="193.56"/></g></g></svg>