<?xml version="1.0" encoding="utf-8"?>
<!-- Generator: Adobe Illustrator 20.1.0, SVG Export Plug-In . SVG Version: 6.00 Build 0)  -->
<svg version="1.1" id="Layer_1" xmlns="http://www.w3.org/2000/svg" xmlns:xlink="http://www.w3.org/1999/xlink" x="0px" y="0px"
	 viewBox="0 0 935.9 193.6" style="enable-background:new 0 0 935.9 193.6;" xml:space="preserve">
<style type="text/css">
	.st0{fill:#FFFFFF;}
</style>
<title>Asset 1</title>
<g id="Layer_2">
	<g id="Layer_1-2">
		<path class="st0" d="M36.3,120.9H6.4V68.5c0-1.9,0-4.8-3.3-4.8C0,63.7,0,66.3,0,68.5v52.6c0,4.4,0.6,4.9,5.3,4.9h31
			c2.1,0,4.7,0,4.7-2.6S38.4,120.8,36.3,120.9"/>
		<path class="st0" d="M49.7,80.6c-2.9,0-2.9,2.4-2.9,4.4v37.7c0,1.9,0,4.3,2.9,4.3s2.8-2.4,2.8-4.3V85
			C52.5,83.2,52.5,80.6,49.7,80.6"/>
		<path class="st0" d="M49.7,65.4c-1.9-0.1-3.6,1.4-3.7,3.3c0,0,0,0.1,0,0.1c0.1,1.9,1.7,3.5,3.7,3.4c1.9,0,3.6-1.5,3.7-3.4
			C53.2,66.8,51.6,65.3,49.7,65.4"/>
		<path class="st0" d="M78,81.6h-6.2v-3.9c0-5.6,0.5-9.2,7.5-9.2c0.3,0,1,0.1,1.9,0.2s1.8,0.2,2.1,0.2c1.3,0,2.3-1,2.4-2.3
			c0-0.8-0.6-1.6-1.3-1.9c-2.2-0.7-4.5-1-6.8-1c-2,0-4,0.5-5.8,1.3c-1.8,0.8-3.2,2.1-4.2,3.8c-0.6,1-1.4,3-1.4,8.2v4.7h-4.9
			c-0.9,0-3.7,0-3.7,1.9s2.6,2,3.7,2h4.9v37.2c0,1.9,0,4.3,2.9,4.3s2.8-2.4,2.8-4.3V85.6H78c2.4,0,3.7-0.7,3.7-2
			C81.7,81.6,79.3,81.6,78,81.6 M72.6,71.6l-0.1,0.2L72.6,71.6"/>
		<path class="st0" d="M124.4,100.8c-0.1-3.6-1-7.2-2.7-10.4c-1.4-2.8-3.6-5.1-6.2-6.8c-0.3-0.2-0.6-0.3-0.9-0.5s-0.4-0.2-0.6-0.3
			c-0.7-0.3-1.3-0.6-2-0.8l-0.6-0.2c-0.8-0.2-1.6-0.5-2.3-0.6l-0.5-0.1c-1-0.2-1.9-0.3-2.9-0.4h-0.3c-0.6,0-1.1-0.1-1.7-0.1
			c-6.8,0-12.4,2.2-16.3,6.4s-5.7,9.9-5.7,16.9c0,6.8,1.8,12.5,5.4,16.5c1.9,2.1,4.2,3.8,6.8,4.9c3.1,1.2,6.4,1.8,9.7,1.8
			c8.4,0,13.3-3.3,15.9-6.1c2-2,3.4-4.5,3.9-7.3c-0.1-1.4-1.4-2.5-2.8-2.4c-1.2,0-2.3,0.8-2.7,1.9c-1.4,3.6-4.1,6.5-7.5,8.2
			c-2.1,0.9-4.3,1.4-6.6,1.4c-5.1,0-9.1-1.7-12-5.2c-2.6-3.2-4-7.7-4.1-13.1H119C121.9,104.5,124.3,104.5,124.4,100.8 M87.7,100.1
			c0.8-5.7,4.8-15.1,15.7-15.1c13.4,0,14.6,11.4,15,15.1L87.7,100.1z"/>
		<path class="st0" d="M153.8,63.7c-3.2,0-3.2,2.9-3.2,4.8v53.7c0,2,0,4.8,3.3,4.8c3.1,0,3.1-2.7,3.1-4.8V68.5
			C157,66.3,157,63.6,153.8,63.7"/>
		<path class="st0" d="M258.4,96.2c1.8,0,3.2-1.4,3.2-3.2V56H255v37C255,94.8,256.5,96.3,258.4,96.2
			C258.3,96.3,258.4,96.3,258.4,96.2"/>
		<path class="st0" d="M197.7,104c-0.4-0.2-0.8-0.4-1.3-0.6l-0.4-0.2c-3.4-1.3-6.9-2.4-10.5-3c-3.2-0.5-6.3-1.4-9.3-2.7
			c-2.8-1.3-4.1-3.1-4.1-5.5c0-4.9,5.8-7.1,11.6-7.1c6,0,10.5,2.3,11.9,6.1c0.8,2.3,1.5,2.7,2.7,2.7c1.3,0.2,2.5-0.8,2.6-2.1
			c0-0.1,0-0.2,0-0.2c-0.3-2.2-1.2-4.2-2.7-5.8c-1.5-1.6-3.3-2.8-5.3-3.6c-3.1-1.1-6.3-1.7-9.6-1.6c-6.4,0-11.2,1.8-14.1,5.2
			c-1.7,2-2.8,4.6-2.9,7.2c0,3.3,1.7,6.4,4.5,8.2c2.9,1.9,5.8,2.6,11.7,4c1.6,0.4,3.4,0.8,5.5,1.4l0.2,0.1c3.2,0.8,9.2,2.3,9.2,7.7
			c0,4.2-4,8.3-13,8.3c-6.5,0-11-2.5-13.2-7.4l-0.1-0.1c-0.6-1.4-1.2-2.7-2.9-2.7c-0.7,0-1.4,0.2-1.9,0.7c-0.6,0.4-0.9,1.1-0.9,1.8
			c0,2.5,2.1,6.1,5,8.4c1.4,1.2,3.1,2,4.8,2.6c2.8,0.9,5.8,1.3,8.8,1.2c7.4,0,12.8-1.8,16.1-5.3c2-2.2,3.2-5.1,3.2-8.1
			c0-4.3-1.9-7.4-5.8-9.6"/>
		<path class="st0" d="M332.7,85.3c-2.1-2.2-6-4.7-12.8-4.7c-9,0-12.7,4.3-15.5,7.5v-3.3c0-1.3,0-2.7-0.8-3.6
			c-0.1-0.1-0.2-0.1-0.3-0.2l-0.1-0.1c-0.5-0.3-1-0.4-1.6-0.4c-2.9,0-2.9,2.6-2.9,4.4v37.7c0,2.1,0,4.4,2.9,4.4
			c0.6,0,1.1-0.1,1.6-0.4l0.1-0.1c0.1-0.1,0.2-0.1,0.3-0.2c0.8-0.8,0.8-2.3,0.8-3.6v-16.1c0-7.2,0.2-10.9,1.7-13.7
			c1.3-2.4,3.2-4.4,5.6-5.8c2.3-1.3,5-2.1,7.7-2.1c3.6-0.1,7,1.4,9.2,4.2c1.7,2.3,1.9,5.7,1.9,9v24.4c0,1.3,0,2.7,0.8,3.6
			c0.1,0.1,0.2,0.1,0.3,0.2l0.1,0.1c0.5,0.3,1,0.4,1.6,0.4c2.9,0,2.9-2.4,2.9-4.4V97.1C336.4,94.7,336.4,89.1,332.7,85.3"/>
		<path class="st0" d="M267.5,62.8v6.4c14.1,4.9,21.6,20.2,16.7,34.3c-4.9,14.1-20.2,21.6-34.3,16.7c-14.1-4.9-21.6-20.2-16.7-34.3
			c2.6-7.6,8.5-13.7,16.1-16.5V63c-17.5,5.2-27.6,23.6-22.4,41.2c5.2,17.5,23.6,27.6,41.2,22.4c17.5-5.2,27.6-23.6,22.4-41.2
			C287.2,74.4,278.6,65.9,267.5,62.8"/>
		<path class="st0" d="M508.3,69.8c-11-4.9-17.6-6.8-24.1-6.8c-6.9,0-11.3,2.4-11.3,6.2c0,11.4,38.8,8.2,38.8,34.7
			c0,14.6-12.3,23.1-29.3,23.1c-13.4,0-19.9-3.4-27.5-7.4v-16.4c10.9,7.2,17.6,9.8,26,9.8c7.3,0,11.3-2.6,11.3-7
			c0-12.5-38.8-7.9-38.8-35.2c0-13.2,11.4-21.9,29.1-21.9c8.5,0,16.2,1.8,25.8,5.9V69.8"/>
		<path class="st0" d="M562.7,123.6c-5.6,2.2-11.4,3.3-17.4,3.4c-18.1,0-29.8-10.5-29.8-26.6c0-15.7,12.1-26.8,29.1-26.8
			c5.9,0.2,11.7,1.3,17.3,3.3V89c-4.1-2.2-8.6-3.4-13.2-3.5c-9.7,0-16,5.8-16,14.8s6.1,15.1,15.4,15.1c3.9,0,7.4-0.9,14.5-3.6
			L562.7,123.6"/>
		<path class="st0" d="M713.8,73.6c-15.9,0-27.2,11.2-27.2,27s11.8,26.4,29.9,26.4c4,0,13.7,0,23-6.8v-10c-7.6,5.4-12.6,7.2-19,7.2
			c-10.2,0-16.4-5.3-17-14.3h37c0.8-18.8-11.6-29.5-26.5-29.5 M703.7,94.6c0.7-7.2,4.8-11.3,11.2-11.3s10.5,4.3,11.2,11.3H703.7z"/>
		<rect x="746.5" y="74.6" class="st0" width="16.2" height="51.5"/>
		<path class="st0" d="M807.7,50v26.8c-4.2-2.1-8.8-3.2-13.4-3.2c-14.7,0-24.9,10.9-24.9,26.7c0,15.4,10.2,26.8,24,26.8
			c5.2,0.1,10.4-1.7,14.3-5.1v4.2h16.2V50H807.7 M807.7,112c-3.4,3-6.2,4.2-9.6,4.2c-7.6,0-12.4-6.3-12.4-15.6
			c0-10.3,4.8-16.2,13-16.2c3.2,0.1,6.4,1.2,9.1,3L807.7,112z"/>
		<path class="st0" d="M857.8,73.6c-15.9,0-27.2,11.2-27.2,27s11.8,26.4,29.8,26.4c4,0,13.7,0,23-6.8v-10
			c-7.6,5.4-12.6,7.2-19.1,7.2c-10.2,0-16.4-5.3-17-14.3h36.9C885.1,84.3,872.7,73.7,857.8,73.6 M847.8,94.6
			c0.7-7.2,4.8-11.3,11.2-11.3s10.5,4.3,11.2,11.3H847.8z"/>
		<path class="st0" d="M908.5,89.3h0.2c4.8-10.7,10.2-15.8,16.4-15.8c3.2,0,6,1.2,10.7,4.7l-4.4,14.3c-4.3-2.7-7-3.8-9.6-3.8
			c-5.9,0-9.7,5.6-13.3,15V126h-16.2V74.5h16.2L908.5,89.3"/>
		<path class="st0" d="M763.5,52.9c1.5,4-1.2,9.6-6.1,12.4c-4.9,2.9-10,2-11.5-2s1.2-9.6,6.1-12.5S761.9,48.9,763.5,52.9"/>
		<path class="st0" d="M620.9,93.3c0-13.9-9.5-19.7-18.8-19.7c-6.4,0-11.6,2.7-16.3,8.6h-0.2V50h-16.2v75.9h16.2V93.3
			c3.8-5.5,7-7.8,10.8-7.8c5,0,8.4,3.6,8.4,11.3v18.1c5-2.6,10.5-4.4,16.2-5.1L620.9,93.3"/>
		<path class="st0" d="M661.4,73.6c-6.6,0-11.6,2.4-16.8,8.3v-7.4h-16.2v35c5.6,0.6,12.7,3.1,16.2,7.4V92.9
			c4.3-6.4,7.3-8.5,11.3-8.5c4.6,0,8.1,3,8.1,10.3v31.3h16.2V93.3C680.2,78.2,669.5,73.6,661.4,73.6"/>
		<polygon class="st0" points="689.1,140.7 670.3,140.7 670.3,154.1 688.5,154.1 688.5,159.8 670.3,159.8 670.3,173.6 689.7,173.6 
			689.7,179.3 664,179.3 664,135 689.1,135 		"/>
		<rect x="704.5" y="135" class="st0" width="5.8" height="44.3"/>
		<path class="st0" d="M730.8,165.6h20.5c0-10.8-4.9-16-12.7-16c-8,0-13.6,5.9-13.6,14.8c0,8.1,5,15.6,14.1,15.6
			c4.2,0.2,8.3-1.1,11.7-3.4v-5.6c-3.4,2.2-6.7,3.5-10.2,3.5C734.9,174.4,731.6,171.4,730.8,165.6 M738.7,154.5
			c4.1,0,6.6,2.8,6.8,7.2h-14.7C731.6,157.1,734.3,154.5,738.7,154.5"/>
		<path class="st0" d="M788.8,157.8c-3.3-2.3-5.5-2.9-8-2.9c-5.3,0-8.9,4-8.9,10s3.9,9.7,9.9,9.7c2.7-0.1,5.3-0.7,7.7-1.9v5.7
			c-2.8,1.1-5.7,1.7-8.7,1.7c-8.7,0-14.8-6-14.8-14.6c0-9.7,5.5-15.8,14.4-15.8c2.9,0,5.8,0.7,8.4,2L788.8,157.8"/>
		<path class="st0" d="M815.1,150.1h9.2v5.2h-9.2v15c-0.2,2.2,1.3,4.2,3.5,4.4c0.2,0,0.4,0,0.6,0c2.3-0.1,4.6-0.8,6.6-2.2v5.4
			c-2.2,1.1-4.6,1.8-7,1.9c-6.3,0-9.4-3.9-9.4-9.2v-15.4h-5.1v-0.6l10.8-10.6L815.1,150.1"/>
		<path class="st0" d="M846.3,150.1v6.8h0.1c2.9-5.2,5.7-7.3,8.5-7.3c2.3,0,4.5,1.1,7,3.4l-3.1,5.1c-1.8-1.7-4-2.9-5.4-2.9
			c-4,0-7.1,4-7.1,9v15.2h-5.8v-29.2H846.3"/>
		<path class="st0" d="M920.8,157.8c-3.3-2.3-5.5-2.9-8.1-2.9c-5.3,0-8.9,4-8.9,10s3.9,9.7,9.8,9.7c2.7-0.1,5.3-0.7,7.8-1.9v5.7
			c-2.8,1.1-5.7,1.7-8.7,1.7c-8.7,0-14.8-6-14.8-14.6c0-9.7,5.5-15.8,14.4-15.8c2.9,0,5.8,0.7,8.5,2L920.8,157.8"/>
		<rect x="877.1" y="150.1" class="st0" width="5.8" height="29.2"/>
		<path class="st0" d="M883,139.6c0.6,1.4-0.4,3.4-2.1,4.4s-3.6,0.7-4.1-0.7s0.4-3.4,2.2-4.4S882.5,138.2,883,139.6"/>
		<path class="st0" d="M629,153.9l1.8-6.3h15.9c2-9.2,0.4-17.7-5.2-23.3c-11.3-11.3-34.9-7.4-52.5,9.4c-2.6,2.6-5,5.3-7.2,8.3h9.6
			l-2.2,6.4h-11.4c-1.1,1.9-2.1,3.9-2.9,6h13.6l-2.2,6.4h-13.3c-2.3,9.7-0.8,18.7,4.9,24.5c11.2,11.1,34.7,7.2,52.2-9.6
			c2.9-2.8,5.6-6,7.9-9.3h-12.3l1.9-6.3h14.4c1-1.9,2-3.9,2.8-6L629,153.9 M625.4,142c-1,0-1.4,0.2-1.9,0.6
			c-0.2,0.2-0.3,0.5-0.3,0.7l-5.2,19.6c-1.2,6.9-9.6,13.7-20.6,13.7h-15.3l2.7-10.1h9.8c0.9,0,1.8-0.4,2.5-1.1
			c0.3-0.3,0.5-0.7,0.6-1.2l4.1-17.1c1.2-6.9,8.5-14.5,19.4-14.5h15.7l-2,9.3L625.4,142z"/>
		<rect x="393.3" class="st0" width="3.3" height="193.6"/>
	</g>
</g>
</svg>
